<?xml version="1.0" encoding="utf-8"?>
<!-- Generator: Adobe Illustrator 23.0.2, SVG Export Plug-In . SVG Version: 6.00 Build 0)  -->
<svg version="1.1" id="Logo" xmlns="http://www.w3.org/2000/svg" xmlns:xlink="http://www.w3.org/1999/xlink" x="0px" y="0px"
	 viewBox="0 0 24.3 24.3" style="enable-background:new 0 0 24.3 24.3;" xml:space="preserve">
<style type="text/css">
	.st0{fill-rule:evenodd;clip-rule:evenodd;fill:#26292C;}
	.st1{fill-rule:evenodd;clip-rule:evenodd;fill:#FFFFFF;}
</style>
<path class="st0" d="M0,0h24.3v24.3H0V0z"/>
<path class="st1" d="M10.1,10c0-2.5,1.4-3.4,2.7-3.4c1.6,0,2.6,1.4,2.6,3.4c0,2.3-1.3,3.4-2.7,3.4C11,13.3,10.1,11.6,10.1,10z
	 M13.4,3.6c-1.9,0-3,0.9-3.5,1.4C9.8,4.5,9.5,3.8,8.2,3.8H5.4v3h1.1c0.2,0,0.3,0.1,0.3,0.3v13.5h3.3v-5.1c0-0.1,0-0.3,0-0.4
	c0.5,0.5,1.5,1.1,3.1,1.1c3.3,0,5.5-2.6,5.5-6.4C18.8,6.1,16.7,3.6,13.4,3.6"/>
</svg>
