<?xml version="1.0" encoding="utf-8"?>
<!-- Generator: Adobe Illustrator 23.0.2, SVG Export Plug-In . SVG Version: 6.00 Build 0)  -->
<svg version="1.1" id="Button" xmlns="http://www.w3.org/2000/svg" xmlns:xlink="http://www.w3.org/1999/xlink" x="0px" y="0px"
	 viewBox="0 0 206 40" style="enable-background:new 0 0 206 40;" xml:space="preserve">
<style type="text/css">
	.st0{fill:#FFFFFF;}
	.st1{fill-rule:evenodd;clip-rule:evenodd;fill:#26292C;}
	.st2{fill-rule:evenodd;clip-rule:evenodd;fill:#FFFFFF;}
</style>
<path id="Button_shape" class="st0" d="M201,40H5c-2.8,0-5-2.2-5-5V5c0-2.8,2.2-5,5-5h196c2.8,0,5,2.2,5,5v30
	C206,37.8,203.8,40,201,40z"/>
<g id="Pipedrive_logo">
	<path class="st1" d="M14.9,7.9h24.3v24.3H14.9V7.9z"/>
	<path class="st2" d="M25,17.9c0-2.5,1.4-3.4,2.7-3.4c1.6,0,2.6,1.4,2.6,3.4c0,2.3-1.3,3.4-2.7,3.4C25.9,21.2,25,19.5,25,17.9z
		 M28.3,11.5c-1.9,0-3,0.9-3.5,1.4c-0.1-0.5-0.4-1.2-1.7-1.2h-2.8v3h1.1c0.2,0,0.3,0.1,0.3,0.3v13.5h3.3v-5.1c0-0.1,0-0.3,0-0.4
		c0.5,0.5,1.5,1.1,3.1,1.1c3.3,0,5.5-2.6,5.5-6.4C33.7,14,31.6,11.5,28.3,11.5"/>
</g>
<g>
	<path d="M61.7,23.8c-0.4,0.2-1.3,0.4-2.5,0.4c-2.7,0-4.7-1.7-4.7-4.8c0-3,2-5,4.9-5c1.2,0,1.9,0.3,2.2,0.4l-0.3,1
		c-0.5-0.2-1.1-0.4-1.9-0.4c-2.2,0-3.7,1.4-3.7,3.9c0,2.3,1.3,3.8,3.6,3.8c0.7,0,1.5-0.2,2-0.4L61.7,23.8z"/>
	<path d="M69.2,20.7c0,2.5-1.7,3.6-3.4,3.6c-1.8,0-3.3-1.3-3.3-3.5c0-2.3,1.5-3.6,3.4-3.6C67.9,17.2,69.2,18.6,69.2,20.7z
		 M63.8,20.7c0,1.5,0.9,2.6,2.1,2.6c1.2,0,2.1-1.1,2.1-2.6c0-1.1-0.6-2.6-2-2.6C64.4,18.1,63.8,19.4,63.8,20.7z"/>
	<path d="M70.7,19.2c0-0.7,0-1.3-0.1-1.8h1.1l0.1,1.1h0c0.3-0.6,1.1-1.3,2.2-1.3c0.9,0,2.4,0.6,2.4,2.9v4h-1.2v-3.9
		c0-1.1-0.4-2-1.6-2c-0.8,0-1.4,0.6-1.7,1.3C72,19.6,72,19.8,72,20v4.1h-1.2V19.2z"/>
	<path d="M78.5,19.2c0-0.7,0-1.3-0.1-1.8h1.1l0.1,1.1h0c0.3-0.6,1.1-1.3,2.2-1.3c0.9,0,2.4,0.6,2.4,2.9v4H83v-3.9c0-1.1-0.4-2-1.6-2
		c-0.8,0-1.4,0.6-1.7,1.3c-0.1,0.2-0.1,0.4-0.1,0.6v4.1h-1.2V19.2z"/>
	<path d="M87,20.9c0,1.7,1.1,2.4,2.3,2.4c0.9,0,1.4-0.2,1.9-0.4l0.2,0.9c-0.4,0.2-1.2,0.4-2.3,0.4c-2.1,0-3.3-1.4-3.3-3.4
		c0-2,1.2-3.7,3.2-3.7c2.2,0,2.8,1.9,2.8,3.2c0,0.3,0,0.4,0,0.6H87z M90.6,20.1c0-0.8-0.3-2-1.7-2c-1.2,0-1.8,1.1-1.9,2H90.6z"/>
	<path d="M98.1,23.9c-0.3,0.2-1,0.4-1.9,0.4c-2,0-3.4-1.4-3.4-3.5c0-2.1,1.4-3.6,3.6-3.6c0.7,0,1.4,0.2,1.7,0.4l-0.3,1
		c-0.3-0.2-0.8-0.3-1.4-0.3c-1.6,0-2.4,1.1-2.4,2.6c0,1.6,1,2.5,2.4,2.5c0.7,0,1.2-0.2,1.5-0.3L98.1,23.9z"/>
	<path d="M101.2,15.4v1.9h1.8v0.9h-1.8v3.7c0,0.8,0.2,1.3,0.9,1.3c0.3,0,0.6,0,0.7-0.1l0.1,0.9c-0.2,0.1-0.6,0.2-1.1,0.2
		c-0.6,0-1-0.2-1.3-0.5c-0.3-0.4-0.5-1-0.5-1.8v-3.7H99v-0.9h1.1v-1.6L101.2,15.4z"/>
	<path d="M107.8,17.3l0.9,3.4c0.2,0.8,0.4,1.5,0.5,2.2h0c0.2-0.7,0.4-1.4,0.6-2.1l1.1-3.5h1l1.1,3.4c0.3,0.8,0.4,1.5,0.6,2.2h0
		c0.1-0.7,0.3-1.4,0.5-2.2l1-3.4h1.2l-2.2,6.8h-1.1l-1-3.2c-0.2-0.8-0.4-1.4-0.6-2.2h0c-0.2,0.8-0.4,1.5-0.6,2.2l-1.1,3.2h-1.1
		l-2-6.8H107.8z"/>
	<path d="M119,15.4c0,0.4-0.3,0.8-0.8,0.8c-0.4,0-0.7-0.3-0.7-0.8c0-0.4,0.3-0.8,0.8-0.8C118.7,14.7,119,15,119,15.4z M117.7,24.1
		v-6.8h1.2v6.8H117.7z"/>
	<path d="M122.4,15.4v1.9h1.8v0.9h-1.8v3.7c0,0.8,0.2,1.3,0.9,1.3c0.3,0,0.6,0,0.7-0.1l0.1,0.9c-0.2,0.1-0.6,0.2-1.1,0.2
		c-0.6,0-1-0.2-1.3-0.5c-0.4-0.4-0.5-1-0.5-1.8v-3.7h-1.1v-0.9h1.1v-1.6L122.4,15.4z"/>
	<path d="M125.6,14.2h1.2v4.2h0c0.2-0.4,0.5-0.7,0.9-0.9c0.4-0.2,0.8-0.4,1.3-0.4c0.9,0,2.4,0.6,2.4,2.9v4h-1.2v-3.9
		c0-1.1-0.4-2-1.6-2c-0.8,0-1.4,0.6-1.7,1.2c-0.1,0.2-0.1,0.4-0.1,0.6v4.1h-1.2V14.2z"/>
	<path d="M136.3,14.8c0.6-0.1,1.4-0.2,2.3-0.2c1.2,0,2.1,0.3,2.6,0.8c0.5,0.4,0.8,1.1,0.8,2c0,0.9-0.3,1.5-0.7,2
		c-0.6,0.7-1.7,1-2.9,1c-0.4,0-0.7,0-1-0.1v3.8h-1.2V14.8z M137.6,19.3c0.3,0.1,0.6,0.1,1,0.1c1.5,0,2.4-0.7,2.4-2
		c0-1.2-0.9-1.8-2.2-1.8c-0.5,0-0.9,0-1.1,0.1V19.3z"/>
	<path d="M144.9,15.4c0,0.4-0.3,0.8-0.8,0.8c-0.4,0-0.7-0.3-0.7-0.8c0-0.4,0.3-0.8,0.8-0.8C144.6,14.7,144.9,15,144.9,15.4z
		 M143.5,24.1v-6.8h1.2v6.8H143.5z"/>
	<path d="M146.8,19.5c0-0.9,0-1.6-0.1-2.2h1.1l0.1,1.2h0c0.5-0.8,1.3-1.3,2.4-1.3c1.6,0,2.9,1.4,2.9,3.4c0,2.4-1.5,3.6-3.1,3.6
		c-0.9,0-1.7-0.4-2.1-1.1h0v3.7h-1.2V19.5z M148,21.3c0,0.2,0,0.4,0.1,0.5c0.2,0.9,1,1.4,1.8,1.4c1.3,0,2.1-1.1,2.1-2.6
		c0-1.4-0.7-2.5-2-2.5c-0.8,0-1.6,0.6-1.9,1.5c0,0.2-0.1,0.3-0.1,0.5V21.3z"/>
	<path d="M155.5,20.9c0,1.7,1.1,2.4,2.3,2.4c0.9,0,1.4-0.2,1.9-0.4l0.2,0.9c-0.4,0.2-1.2,0.4-2.3,0.4c-2.1,0-3.3-1.4-3.3-3.4
		c0-2,1.2-3.7,3.2-3.7c2.2,0,2.8,1.9,2.8,3.2c0,0.3,0,0.4,0,0.6H155.5z M159.1,20.1c0-0.8-0.3-2-1.7-2c-1.2,0-1.8,1.1-1.9,2H159.1z"
		/>
	<path d="M167.6,14.2v8.2c0,0.6,0,1.3,0.1,1.8h-1.1l-0.1-1.2h0c-0.4,0.8-1.2,1.3-2.3,1.3c-1.6,0-2.9-1.4-2.9-3.4
		c0-2.3,1.4-3.6,3-3.6c1,0,1.7,0.5,2,1h0v-4H167.6z M166.4,20.1c0-0.2,0-0.4-0.1-0.5c-0.2-0.8-0.9-1.4-1.8-1.4c-1.3,0-2,1.1-2,2.6
		c0,1.4,0.7,2.5,2,2.5c0.8,0,1.6-0.5,1.8-1.5c0-0.2,0.1-0.3,0.1-0.5V20.1z"/>
	<path d="M169.7,19.4c0-0.8,0-1.5-0.1-2.1h1.1l0,1.3h0.1c0.3-0.9,1-1.5,1.9-1.5c0.1,0,0.2,0,0.3,0v1.2c-0.1,0-0.3,0-0.4,0
		c-0.9,0-1.5,0.7-1.7,1.6c0,0.2-0.1,0.4-0.1,0.6v3.6h-1.2V19.4z"/>
	<path d="M175.7,15.4c0,0.4-0.3,0.8-0.8,0.8c-0.4,0-0.7-0.3-0.7-0.8c0-0.4,0.3-0.8,0.8-0.8C175.4,14.7,175.7,15,175.7,15.4z
		 M174.3,24.1v-6.8h1.2v6.8H174.3z"/>
	<path d="M178.1,17.3l1.3,3.8c0.2,0.6,0.4,1.2,0.5,1.7h0c0.2-0.6,0.3-1.1,0.6-1.7l1.3-3.8h1.3l-2.7,6.8h-1.2l-2.6-6.8H178.1z"/>
	<path d="M184.9,20.9c0,1.7,1.1,2.4,2.3,2.4c0.9,0,1.4-0.2,1.9-0.4l0.2,0.9c-0.4,0.2-1.2,0.4-2.3,0.4c-2.1,0-3.3-1.4-3.3-3.4
		c0-2,1.2-3.7,3.2-3.7c2.2,0,2.8,1.9,2.8,3.2c0,0.3,0,0.4,0,0.6H184.9z M188.5,20.1c0-0.8-0.3-2-1.7-2c-1.2,0-1.8,1.1-1.9,2H188.5z"
		/>
</g>
</svg>
